# xmcd CD database file
#
# Track frame offsets:
#	150
#	14726
#	33074
#	46918
#	65843
#	104326
#	168390
#	191720
#	207618
#	227126
#	242745
#	255329
#	273895
#	293204
#
# Disc length: 4302 seconds
#
# Revision: 2
# Processed by: cddbd v1.5.1PL0 Copyright (c) Steve Scherf et al.
# Submitted via: CDex 1.51
#
DISCID=cb10cc0e
DTITLE=Blue Haven - Keepin' the Blues "LIVE"
DYEAR=2000
DGENRE=Blues
TTITLE0=Honey Bee
TTITLE1=Never Miss the Water
TTITLE2=Find Another Woman
TTITLE3=Matchbox
TTITLE4=Dirty Dishes
TTITLE5=Dog - Mornin' Coffee
TTITLE6=Back Stroke
TTITLE7=Lets Roll
TTITLE8=Blue Light Boogie
TTITLE9=Kiss the Baby
TTITLE10=Hawaiian Boogie
TTITLE11=Keepin' the Blues Alive
TTITLE12=Nobody Loves Me Like My Baby
TTITLE13=Got My Mojo Working
EXTD=YEAR: 2000
EXTT0=
EXTT1=
EXTT2=
EXTT3=
EXTT4=
EXTT5=
EXTT6=
EXTT7=
EXTT8=
EXTT9=
EXTT10=
EXTT11=
EXTT12=
EXTT13=
PLAYORDER=
